<mxfile host="app.diagrams.net" modified="2021-04-07T09:28:16.738Z" agent="5.0 (Windows NT 10.0; Win64; x64) AppleWebKit/537.36 (KHTML, like Gecko) Chrome/89.0.4389.114 Safari/537.36" etag="Y30-Bdb7sjOT7S33Z5FA" version="14.5.8" type="github">
  <diagram id="6uORmVI90lyo6VlDKRxo" name="Page-1">
    <mxGraphModel dx="2048" dy="686" grid="1" gridSize="10" guides="1" tooltips="1" connect="1" arrows="1" fold="1" page="1" pageScale="1" pageWidth="827" pageHeight="1169" math="0" shadow="0">
      <root>
        <mxCell id="0" />
        <mxCell id="1" parent="0" />
        <mxCell id="8dDgJKX1a-RQ1XfclGmu-9" style="edgeStyle=orthogonalEdgeStyle;rounded=0;orthogonalLoop=1;jettySize=auto;html=1;entryX=-0.004;entryY=0.495;entryDx=0;entryDy=0;entryPerimeter=0;" edge="1" parent="1" source="8dDgJKX1a-RQ1XfclGmu-1" target="8dDgJKX1a-RQ1XfclGmu-5">
          <mxGeometry relative="1" as="geometry" />
        </mxCell>
        <mxCell id="8dDgJKX1a-RQ1XfclGmu-1" value="&lt;span style=&quot;font-size: 20px&quot;&gt;&lt;b&gt;Avatar&lt;/b&gt;&lt;/span&gt;&lt;br style=&quot;font-size: 14px&quot;&gt;I am in room1" style="html=1;shadow=0;dashed=0;shape=mxgraph.bootstrap.rrect;rSize=5;strokeColor=#D2D3D4;html=1;whiteSpace=wrap;fillColor=#F8F9FA;fontColor=#212529;verticalAlign=bottom;align=center;spacing=20;spacingBottom=0;fontSize=14;" vertex="1" parent="1">
          <mxGeometry x="-80" y="465" width="200" height="120" as="geometry" />
        </mxCell>
        <mxCell id="8dDgJKX1a-RQ1XfclGmu-2" value="Game" style="html=1;shadow=0;dashed=0;shape=mxgraph.bootstrap.topButton;rSize=5;perimeter=none;whiteSpace=wrap;fillColor=#F0F1F2;strokeColor=#D2D3D4;fontColor=#212529;resizeWidth=1;fontSize=18;align=center;spacing=20;" vertex="1" parent="8dDgJKX1a-RQ1XfclGmu-1">
          <mxGeometry width="200" height="50" relative="1" as="geometry" />
        </mxCell>
        <mxCell id="8dDgJKX1a-RQ1XfclGmu-10" style="edgeStyle=orthogonalEdgeStyle;rounded=0;orthogonalLoop=1;jettySize=auto;html=1;dashed=1;" edge="1" parent="1" source="8dDgJKX1a-RQ1XfclGmu-5" target="8dDgJKX1a-RQ1XfclGmu-8">
          <mxGeometry relative="1" as="geometry">
            <Array as="points">
              <mxPoint x="640" y="490" />
              <mxPoint x="640" y="490" />
            </Array>
          </mxGeometry>
        </mxCell>
        <mxCell id="8dDgJKX1a-RQ1XfclGmu-12" style="edgeStyle=orthogonalEdgeStyle;rounded=0;orthogonalLoop=1;jettySize=auto;html=1;" edge="1" parent="1" source="8dDgJKX1a-RQ1XfclGmu-5" target="8dDgJKX1a-RQ1XfclGmu-7">
          <mxGeometry relative="1" as="geometry">
            <Array as="points">
              <mxPoint x="660" y="570" />
              <mxPoint x="660" y="570" />
            </Array>
          </mxGeometry>
        </mxCell>
        <mxCell id="8dDgJKX1a-RQ1XfclGmu-5" value="&lt;span style=&quot;font-size: 20px&quot;&gt;&lt;b&gt;ClientSession&lt;/b&gt;&lt;/span&gt;&lt;br style=&quot;font-size: 14px&quot;&gt;Cache（I am in room1）" style="html=1;shadow=0;dashed=0;shape=mxgraph.bootstrap.rrect;rSize=5;strokeColor=#D2D3D4;html=1;whiteSpace=wrap;fillColor=#F8F9FA;fontColor=#212529;verticalAlign=bottom;align=center;spacing=20;spacingBottom=0;fontSize=14;" vertex="1" parent="1">
          <mxGeometry x="314" y="465" width="200" height="120" as="geometry" />
        </mxCell>
        <mxCell id="8dDgJKX1a-RQ1XfclGmu-6" value="Gate" style="html=1;shadow=0;dashed=0;shape=mxgraph.bootstrap.topButton;rSize=5;perimeter=none;whiteSpace=wrap;fillColor=#F0F1F2;strokeColor=#D2D3D4;fontColor=#212529;resizeWidth=1;fontSize=18;align=center;spacing=20;" vertex="1" parent="8dDgJKX1a-RQ1XfclGmu-5">
          <mxGeometry width="200" height="50" relative="1" as="geometry" />
        </mxCell>
        <mxCell id="8dDgJKX1a-RQ1XfclGmu-7" value="" style="fontColor=#0066CC;verticalAlign=top;verticalLabelPosition=bottom;labelPosition=center;align=center;html=1;outlineConnect=0;fillColor=#CCCCCC;strokeColor=#6881B3;gradientColor=none;gradientDirection=north;strokeWidth=2;shape=mxgraph.networks.mobile;" vertex="1" parent="1">
          <mxGeometry x="715" y="422.5" width="100" height="205" as="geometry" />
        </mxCell>
        <mxCell id="8dDgJKX1a-RQ1XfclGmu-11" style="edgeStyle=orthogonalEdgeStyle;rounded=0;orthogonalLoop=1;jettySize=auto;html=1;dashed=1;entryX=1.013;entryY=0.544;entryDx=0;entryDy=0;entryPerimeter=0;" edge="1" parent="1" source="8dDgJKX1a-RQ1XfclGmu-8" target="8dDgJKX1a-RQ1XfclGmu-5">
          <mxGeometry relative="1" as="geometry">
            <mxPoint x="590" y="530" as="targetPoint" />
            <Array as="points">
              <mxPoint x="680" y="530" />
              <mxPoint x="680" y="530" />
            </Array>
          </mxGeometry>
        </mxCell>
        <mxCell id="8dDgJKX1a-RQ1XfclGmu-8" value="&lt;div&gt;&lt;font color=&quot;#0066cc&quot; face=&quot;helvetica&quot;&gt;&lt;br&gt;&lt;/font&gt;&lt;/div&gt;&lt;div&gt;&lt;font color=&quot;#0066cc&quot; face=&quot;helvetica&quot;&gt;&lt;br&gt;&lt;/font&gt;&lt;/div&gt;&lt;span style=&quot;font-style: normal ; font-weight: 400 ; letter-spacing: normal ; text-indent: 0px ; text-transform: none ; word-spacing: 0px ; color: rgb(33 , 37 , 41) ; font-family: &amp;#34;helvetica&amp;#34; ; font-size: 14px ; background-color: rgb(248 , 249 , 250) ; display: inline ; float: none&quot;&gt;&lt;div&gt;I am in room1&lt;/div&gt;&lt;/span&gt;" style="text;whiteSpace=wrap;html=1;align=center;" vertex="1" parent="1">
          <mxGeometry x="715" y="472.5" width="100" height="70" as="geometry" />
        </mxCell>
        <mxCell id="8dDgJKX1a-RQ1XfclGmu-13" value="" style="html=1;outlineConnect=0;fillColor=#CCCCCC;strokeColor=#6881B3;gradientColor=none;gradientDirection=north;strokeWidth=2;shape=mxgraph.networks.comm_link_edge;html=1;" edge="1" parent="1">
          <mxGeometry width="100" height="100" relative="1" as="geometry">
            <mxPoint x="620" y="515" as="sourcePoint" />
            <mxPoint x="670" y="465" as="targetPoint" />
          </mxGeometry>
        </mxCell>
        <mxCell id="8dDgJKX1a-RQ1XfclGmu-15" value="&lt;div style=&quot;text-align: center&quot;&gt;&lt;font color=&quot;#212529&quot; face=&quot;helvetica&quot;&gt;&lt;span style=&quot;font-size: 14px&quot;&gt;1. send: [move to room1]&lt;/span&gt;&lt;/font&gt;&lt;/div&gt;" style="text;whiteSpace=wrap;html=1;" vertex="1" parent="1">
          <mxGeometry x="130" y="490" width="170" height="30" as="geometry" />
        </mxCell>
        <mxCell id="8dDgJKX1a-RQ1XfclGmu-16" value="&lt;div style=&quot;text-align: center&quot;&gt;&lt;font color=&quot;#212529&quot; face=&quot;helvetica&quot;&gt;&lt;span style=&quot;font-size: 14px&quot;&gt;4. send: [move to room1]&lt;/span&gt;&lt;/font&gt;&lt;/div&gt;" style="text;whiteSpace=wrap;html=1;" vertex="1" parent="1">
          <mxGeometry x="530" y="542.5" width="160" height="30" as="geometry" />
        </mxCell>
        <mxCell id="8dDgJKX1a-RQ1XfclGmu-18" value="&lt;div style=&quot;text-align: center&quot;&gt;&lt;font color=&quot;#212529&quot; face=&quot;helvetica&quot;&gt;&lt;span style=&quot;font-size: 14px&quot;&gt;3. reconnect&lt;/span&gt;&lt;/font&gt;&lt;/div&gt;" style="text;whiteSpace=wrap;html=1;" vertex="1" parent="1">
          <mxGeometry x="530" y="500" width="150" height="30" as="geometry" />
        </mxCell>
        <mxCell id="8dDgJKX1a-RQ1XfclGmu-19" value="&lt;div style=&quot;text-align: center&quot;&gt;&lt;font color=&quot;#212529&quot; face=&quot;helvetica&quot;&gt;&lt;span style=&quot;font-size: 14px&quot;&gt;2. broken&lt;/span&gt;&lt;/font&gt;&lt;/div&gt;" style="text;whiteSpace=wrap;html=1;" vertex="1" parent="1">
          <mxGeometry x="530" y="460" width="70" height="30" as="geometry" />
        </mxCell>
      </root>
    </mxGraphModel>
  </diagram>
</mxfile>
